{"title":"Diary.Of.A.Wimpy.Kid.DVDRip.XviD-ice team.","uid":5715513,"size":472661230,"categoryP":"video","categoryS":"movies","magnet":"?xt=urn:btih:51122e5fd28209f4710c26e4c5d3b522ec0d89ac&amp;dn=Diary.Of.A.Wimpy.Kid.DVDRip.XviD-ice+team.&amp;tr=udp%3A%2F%2Ftracker.openbittorrent.com%3A80&amp;tr=udp%3A%2F%2Fopen.demonii.com%3A1337&amp;tr=udp%3A%2F%2Ftracker.coppersurfer.tk%3A6969&amp;tr=udp%3A%2F%2Fexodus.desync.com%3A6969","seeders":0,"leechers":1,"uploader":null,"files":3,"time":1280077006,"description":"IDMB                            : http://www.imdb.com/title/tt1196141/\n\nGenre                           :  Comedy | Family\n\nFormat                           : MPEG-4\nFormat profile                   : Sony PSP\nCodec ID                         : MSNV\nFile size                        : 451 MiB\nDuration                         : 1h 32mn\nOverall bit rate                 : 681 Kbps\nEncoded date                     : UTC 1970-01-01 00:00:00\nTagged date                      : UTC 1970-01-01 00:00:00\n\nVideo\nID                               : 1\nFormat                           : MPEG-4 Visual\nFormat profile                   : Simple@L3\nFormat settings, BVOP            : No\nFormat settings, QPel            : No\nFormat settings, GMC             : No warppoints\nFormat settings, Matrix          : Default (H.263)\nCodec ID                         : 20\nDuration                         : 1h 32mn\nBit rate mode                    : Variable\nBit rate                         : 613 Kbps\nWidth                            : 400 pixels\nHeight                           : 192 pixels\nDisplay aspect ratio             : 16:9\nOriginal display aspect ratio    : 2.083\nFrame rate mode                  : Constant\nFrame rate                       : 29.970 fps\nResolution                       : 24 bits\nColorimetry                      : 4:2:0\nScan type                        : Progressive\nBits/(Pixel*Frame)               : 0.266\nStream size                      : 406 MiB (90%)\nWriting library                  : XviD 1.2.0.dev47 (UTC 2006-11-01)\nEncoded date                     : UTC 1970-01-01 00:00:00\nTagged date                      : UTC 1970-01-01 00:00:00\n\nAudio\nID                               : 2\nFormat                           : AAC\nFormat/Info                      : Advanced Audio Codec\nFormat version                   : Version 4\nFormat profile                   : LC\nFormat settings, SBR             : Yes\nFormat settings, PS              : No\nCodec ID                         : 40\nDuration                         : 1h 32mn\nBit rate mode                    : Variable\nBit rate                         : 64.0 Kbps\nChannel(s)                       : 2 channels\nChannel positions                : L R\nSampling rate                    : 48.0 KHz\nResolution                       : 16 bits\nStream size                      : 42.4 MiB (9%)\nEncoded date                     : UTC 1970-01-01 00:00:00\nTagged date                      : UTC 1970-01-01 00:00:00\n\n\n\nPLOT\n\nLive-action adaptation of Jeff Kinney's illustrated novel about a wise-cracking sixth grade \nstuden\n\n  Screen  SHOTZ","torrent":{"xt":"urn:btih:51122e5fd28209f4710c26e4c5d3b522ec0d89ac","amp;dn":"Diary.Of.A.Wimpy.Kid.DVDRip.XviD-ice+team.","amp;tr":["udp%3A%2F%2Ftracker.openbittorrent.com%3A80","udp%3A%2F%2Fopen.demonii.com%3A1337","udp%3A%2F%2Ftracker.coppersurfer.tk%3A6969","udp%3A%2F%2Fexodus.desync.com%3A6969"],"infoHash":"51122e5fd28209f4710c26e4c5d3b522ec0d89ac","infoHashBuffer":{"type":"Buffer","data":[81,18,46,95,210,130,9,244,113,12,38,228,197,211,181,34,236,13,137,172]},"announce":[],"urlList":[]}}